<svg xmlns="http://www.w3.org/2000/svg" width="350" height="515" viewBox="0 0 350 515">
  <g id="Group_1037" data-name="Group 1037" transform="translate(-13117 15478.498)">
    <rect id="Rectangle_79" data-name="Rectangle 79" width="350" height="69" transform="translate(13117 -15478.498)" fill="#181818"/>
    <rect id="Rectangle_78" data-name="Rectangle 78" width="40" height="445" transform="translate(13117 -15408.498)" fill="#181818"/>
    <text id="オンライン_オフラインマーケティング" data-name="オンライン/オフラインマーケティング" transform="translate(13287 -15440.497)" fill="#cecece" font-size="12" font-family="YuGothicUI-Regular, Yu Gothic UI" letter-spacing="0.1em"><tspan x="-86.281" y="0">オンライン</tspan><tspan y="0" font-family="SegoeUI, Segoe UI">/</tspan><tspan y="0">オフラインマーケティング</tspan></text>
    <g id="Group_1035" data-name="Group 1035" transform="translate(13157 -15408.498)">
      <rect id="Rectangle_81" data-name="Rectangle 81" width="310" height="148" transform="translate(0 296.999)" fill="#ba6a6a"/>
      <path id="Union_1" data-name="Union 1" d="M151.588,148.879H0V0H310V148.879H158.412L155,157Z" transform="translate(0 147.999)" fill="#990001"/>
      <path id="Union_2" data-name="Union 2" d="M151.588,148.879H0V0H310V148.879H158.412L155,157Z" transform="translate(0 0)" fill="#640000"/>
      <text id="インサイドセールス" transform="translate(153.118 37.72)" fill="#fff" font-size="16" font-family="YuGothicUI-Regular, Yu Gothic UI" letter-spacing="0.05em"><tspan x="-57.055" y="0">インサイドセールス</tspan></text>
      <text id="フィールドセールス" transform="translate(153.118 196.999)" fill="#fff" font-size="16" font-family="YuGothicUI-Regular, Yu Gothic UI" letter-spacing="0.05em"><tspan x="-55.169" y="0">フィールドセールス</tspan></text>
      <text id="カスタマーサクセス" transform="translate(153.118 344.998)" fill="#fff" font-size="16" font-family="YuGothicUI-Regular, Yu Gothic UI" letter-spacing="0.05em"><tspan x="-57.466" y="0">カスタマーサクセス</tspan></text>
      <text id="リード精査_リスト作成_SDR_反響型_BDR_新規開拓型_アポイント獲得" data-name="リード精査・リスト作成 / SDR(反響型) / BDR(新規開拓型) / アポイント獲得" transform="translate(31.5 56.72)" fill="#fff" font-size="12" font-family="YuGothicUI-Regular, Yu Gothic UI" letter-spacing="0.05em"><tspan x="-101.3" y="13">リード精査・リスト作成</tspan><tspan y="13" xml:space="preserve" font-family="SegoeUI, Segoe UI"> / SDR(</tspan><tspan y="13">反響型</tspan><tspan y="13" font-family="SegoeUI, Segoe UI">) / </tspan><tspan x="-90.769" y="31" font-family="SegoeUI, Segoe UI">BDR(</tspan><tspan y="31">新規開拓型</tspan><tspan y="31" font-family="SegoeUI, Segoe UI">) / </tspan><tspan y="31">アポイント獲得</tspan></text>
      <text id="初回商談_訪問_提案書作成_クロージング_契約" data-name="初回商談・訪問 / 提案書作成 /クロージング/ 契約" transform="translate(29.5 235.999)" fill="#fff" font-size="12" font-family="YuGothicUI-Regular, Yu Gothic UI" letter-spacing="0.05em"><tspan x="-122.839" y="13">初回商談・訪問</tspan><tspan y="13" xml:space="preserve" font-family="SegoeUI, Segoe UI"> / </tspan><tspan y="13">提案書作成</tspan><tspan y="13" xml:space="preserve" font-family="SegoeUI, Segoe UI"> /</tspan><tspan y="13">クロージング</tspan><tspan y="13" font-family="SegoeUI, Segoe UI">/ </tspan><tspan y="13">契</tspan><tspan x="-6" y="31">約</tspan></text>
      <text id="ハイタッチ_個別サポート_ロータッチ_電話_メール_オンライン_テックタッチ_メルマガ_ウェビナー_" data-name="ハイタッチ(個別サポート) / ロータッチ(電話・メール・オンライン) / テックタッチ(メルマガ・ウェビナー)" transform="translate(29.5 363)" fill="#fff" font-size="12" font-family="YuGothicUI-Regular, Yu Gothic UI" letter-spacing="0.05em"><tspan x="-115.018" y="13">ハイタッチ</tspan><tspan y="13" font-family="SegoeUI, Segoe UI">(</tspan><tspan y="13">個別サポート</tspan><tspan y="13" font-family="SegoeUI, Segoe UI">) / </tspan><tspan y="13">ロータッチ</tspan><tspan y="13" font-family="SegoeUI, Segoe UI">(</tspan><tspan y="13">電話・メー</tspan><tspan x="-117.56" y="31">ル・オンライン</tspan><tspan y="31" font-family="SegoeUI, Segoe UI">) / </tspan><tspan y="31">テックタッチ</tspan><tspan y="31" font-family="SegoeUI, Segoe UI">(</tspan><tspan y="31">メルマガ・ウェビナー</tspan><tspan y="31" font-family="SegoeUI, Segoe UI">)</tspan></text>
      <text id="セールスイネーブルメント" transform="translate(30 215.498)" fill="#fff" font-size="12" font-family="YuGothicUI-Regular, Yu Gothic UI" letter-spacing="0.05em"><tspan x="-56.919" y="13">セールスイネーブルメント</tspan></text>
      <g id="Group_1036" data-name="Group 1036" transform="translate(36.882 95.721)">
        <g id="Path_6034" data-name="Path 6034" fill="none" stroke-dasharray="3">
          <path d="M0,0H236.236V29.56H0Z" stroke="none"/>
          <path d="M -1.52587890625e-05 -9.5367431640625e-06 L 2.999984741210938 -9.5367431640625e-06 L 2.999984741210938 0.9999904632568359 L 0.9999847412109375 0.9999904632568359 L 0.9999847412109375 3.591814041137695 L -1.52587890625e-05 3.591814041137695 L -1.52587890625e-05 -9.5367431640625e-06 Z M 5.999984741210938 -9.5367431640625e-06 L 8.999984741210938 -9.5367431640625e-06 L 8.999984741210938 0.9999904632568359 L 5.999984741210938 0.9999904632568359 L 5.999984741210938 -9.5367431640625e-06 Z M 11.99998474121094 -9.5367431640625e-06 L 14.99998474121094 -9.5367431640625e-06 L 14.99998474121094 0.9999904632568359 L 11.99998474121094 0.9999904632568359 L 11.99998474121094 -9.5367431640625e-06 Z M 17.99998474121094 -9.5367431640625e-06 L 20.99998474121094 -9.5367431640625e-06 L 20.99998474121094 0.9999904632568359 L 17.99998474121094 0.9999904632568359 L 17.99998474121094 -9.5367431640625e-06 Z M 23.99998474121094 -9.5367431640625e-06 L 26.99998474121094 -9.5367431640625e-06 L 26.99998474121094 0.9999904632568359 L 23.99998474121094 0.9999904632568359 L 23.99998474121094 -9.5367431640625e-06 Z M 29.99998474121094 -9.5367431640625e-06 L 32.99998474121094 -9.5367431640625e-06 L 32.99998474121094 0.9999904632568359 L 29.99998474121094 0.9999904632568359 L 29.99998474121094 -9.5367431640625e-06 Z M 35.99998474121094 -9.5367431640625e-06 L 38.99998474121094 -9.5367431640625e-06 L 38.99998474121094 0.9999904632568359 L 35.99998474121094 0.9999904632568359 L 35.99998474121094 -9.5367431640625e-06 Z M 41.99998474121094 -9.5367431640625e-06 L 44.99998474121094 -9.5367431640625e-06 L 44.99998474121094 0.9999904632568359 L 41.99998474121094 0.9999904632568359 L 41.99998474121094 -9.5367431640625e-06 Z M 47.99998474121094 -9.5367431640625e-06 L 50.99998474121094 -9.5367431640625e-06 L 50.99998474121094 0.9999904632568359 L 47.99998474121094 0.9999904632568359 L 47.99998474121094 -9.5367431640625e-06 Z M 53.99998474121094 -9.5367431640625e-06 L 56.99998474121094 -9.5367431640625e-06 L 56.99998474121094 0.9999904632568359 L 53.99998474121094 0.9999904632568359 L 53.99998474121094 -9.5367431640625e-06 Z M 59.99998474121094 -9.5367431640625e-06 L 62.99998474121094 -9.5367431640625e-06 L 62.99998474121094 0.9999904632568359 L 59.99998474121094 0.9999904632568359 L 59.99998474121094 -9.5367431640625e-06 Z M 65.99998474121094 -9.5367431640625e-06 L 68.99998474121094 -9.5367431640625e-06 L 68.99998474121094 0.9999904632568359 L 65.99998474121094 0.9999904632568359 L 65.99998474121094 -9.5367431640625e-06 Z M 71.99998474121094 -9.5367431640625e-06 L 74.99998474121094 -9.5367431640625e-06 L 74.99998474121094 0.9999904632568359 L 71.99998474121094 0.9999904632568359 L 71.99998474121094 -9.5367431640625e-06 Z M 77.99998474121094 -9.5367431640625e-06 L 80.99998474121094 -9.5367431640625e-06 L 80.99998474121094 0.9999904632568359 L 77.99998474121094 0.9999904632568359 L 77.99998474121094 -9.5367431640625e-06 Z M 83.99998474121094 -9.5367431640625e-06 L 86.99998474121094 -9.5367431640625e-06 L 86.99998474121094 0.9999904632568359 L 83.99998474121094 0.9999904632568359 L 83.99998474121094 -9.5367431640625e-06 Z M 89.99998474121094 -9.5367431640625e-06 L 92.99998474121094 -9.5367431640625e-06 L 92.99998474121094 0.9999904632568359 L 89.99998474121094 0.9999904632568359 L 89.99998474121094 -9.5367431640625e-06 Z M 95.99998474121094 -9.5367431640625e-06 L 98.99998474121094 -9.5367431640625e-06 L 98.99998474121094 0.9999904632568359 L 95.99998474121094 0.9999904632568359 L 95.99998474121094 -9.5367431640625e-06 Z M 101.9999847412109 -9.5367431640625e-06 L 104.9999847412109 -9.5367431640625e-06 L 104.9999847412109 0.9999904632568359 L 101.9999847412109 0.9999904632568359 L 101.9999847412109 -9.5367431640625e-06 Z M 107.9999847412109 -9.5367431640625e-06 L 110.9999847412109 -9.5367431640625e-06 L 110.9999847412109 0.9999904632568359 L 107.9999847412109 0.9999904632568359 L 107.9999847412109 -9.5367431640625e-06 Z M 113.9999847412109 -9.5367431640625e-06 L 116.9999847412109 -9.5367431640625e-06 L 116.9999847412109 0.9999904632568359 L 113.9999847412109 0.9999904632568359 L 113.9999847412109 -9.5367431640625e-06 Z M 119.9999847412109 -9.5367431640625e-06 L 122.9999847412109 -9.5367431640625e-06 L 122.9999847412109 0.9999904632568359 L 119.9999847412109 0.9999904632568359 L 119.9999847412109 -9.5367431640625e-06 Z M 125.9999847412109 -9.5367431640625e-06 L 128.9999847412109 -9.5367431640625e-06 L 128.9999847412109 0.9999904632568359 L 125.9999847412109 0.9999904632568359 L 125.9999847412109 -9.5367431640625e-06 Z M 131.9999847412109 -9.5367431640625e-06 L 134.9999847412109 -9.5367431640625e-06 L 134.9999847412109 0.9999904632568359 L 131.9999847412109 0.9999904632568359 L 131.9999847412109 -9.5367431640625e-06 Z M 137.9999847412109 -9.5367431640625e-06 L 140.9999847412109 -9.5367431640625e-06 L 140.9999847412109 0.9999904632568359 L 137.9999847412109 0.9999904632568359 L 137.9999847412109 -9.5367431640625e-06 Z M 143.9999847412109 -9.5367431640625e-06 L 146.9999847412109 -9.5367431640625e-06 L 146.9999847412109 0.9999904632568359 L 143.9999847412109 0.9999904632568359 L 143.9999847412109 -9.5367431640625e-06 Z M 149.9999847412109 -9.5367431640625e-06 L 152.9999847412109 -9.5367431640625e-06 L 152.9999847412109 0.9999904632568359 L 149.9999847412109 0.9999904632568359 L 149.9999847412109 -9.5367431640625e-06 Z M 155.9999847412109 -9.5367431640625e-06 L 158.9999847412109 -9.5367431640625e-06 L 158.9999847412109 0.9999904632568359 L 155.9999847412109 0.9999904632568359 L 155.9999847412109 -9.5367431640625e-06 Z M 161.9999847412109 -9.5367431640625e-06 L 164.9999847412109 -9.5367431640625e-06 L 164.9999847412109 0.9999904632568359 L 161.9999847412109 0.9999904632568359 L 161.9999847412109 -9.5367431640625e-06 Z M 167.9999847412109 -9.5367431640625e-06 L 170.9999847412109 -9.5367431640625e-06 L 170.9999847412109 0.9999904632568359 L 167.9999847412109 0.9999904632568359 L 167.9999847412109 -9.5367431640625e-06 Z M 173.9999847412109 -9.5367431640625e-06 L 176.9999847412109 -9.5367431640625e-06 L 176.9999847412109 0.9999904632568359 L 173.9999847412109 0.9999904632568359 L 173.9999847412109 -9.5367431640625e-06 Z M 179.9999847412109 -9.5367431640625e-06 L 182.9999847412109 -9.5367431640625e-06 L 182.9999847412109 0.9999904632568359 L 179.9999847412109 0.9999904632568359 L 179.9999847412109 -9.5367431640625e-06 Z M 185.9999847412109 -9.5367431640625e-06 L 188.9999847412109 -9.5367431640625e-06 L 188.9999847412109 0.9999904632568359 L 185.9999847412109 0.9999904632568359 L 185.9999847412109 -9.5367431640625e-06 Z M 191.9999847412109 -9.5367431640625e-06 L 194.9999847412109 -9.5367431640625e-06 L 194.9999847412109 0.9999904632568359 L 191.9999847412109 0.9999904632568359 L 191.9999847412109 -9.5367431640625e-06 Z M 197.9999847412109 -9.5367431640625e-06 L 200.9999847412109 -9.5367431640625e-06 L 200.9999847412109 0.9999904632568359 L 197.9999847412109 0.9999904632568359 L 197.9999847412109 -9.5367431640625e-06 Z M 203.9999847412109 -9.5367431640625e-06 L 206.9999847412109 -9.5367431640625e-06 L 206.9999847412109 0.9999904632568359 L 203.9999847412109 0.9999904632568359 L 203.9999847412109 -9.5367431640625e-06 Z M 209.9999847412109 -9.5367431640625e-06 L 212.9999847412109 -9.5367431640625e-06 L 212.9999847412109 0.9999904632568359 L 209.9999847412109 0.9999904632568359 L 209.9999847412109 -9.5367431640625e-06 Z M 215.9999847412109 -9.5367431640625e-06 L 218.9999847412109 -9.5367431640625e-06 L 218.9999847412109 0.9999904632568359 L 215.9999847412109 0.9999904632568359 L 215.9999847412109 -9.5367431640625e-06 Z M 221.9999847412109 -9.5367431640625e-06 L 224.9999847412109 -9.5367431640625e-06 L 224.9999847412109 0.9999904632568359 L 221.9999847412109 0.9999904632568359 L 221.9999847412109 -9.5367431640625e-06 Z M 227.9999847412109 -9.5367431640625e-06 L 230.9999847412109 -9.5367431640625e-06 L 230.9999847412109 0.9999904632568359 L 227.9999847412109 0.9999904632568359 L 227.9999847412109 -9.5367431640625e-06 Z M 233.9999847412109 -9.5367431640625e-06 L 236.2363128662109 -9.5367431640625e-06 L 236.2363128662109 0.9999904632568359 L 233.9999847412109 0.9999904632568359 L 233.9999847412109 -9.5367431640625e-06 Z M 235.2363128662109 3.763668060302734 L 236.2363128662109 3.763668060302734 C 236.2363128662109 3.763668060302734 236.2363128662109 6.763668060302734 236.2363128662109 6.763668060302734 L 235.2363128662109 6.763668060302734 L 235.2363128662109 3.763668060302734 Z M 235.2363128662109 9.763668060302734 L 236.2363128662109 9.763668060302734 C 236.2363128662109 9.763668060302734 236.2363128662109 12.76366806030273 236.2363128662109 12.76366806030273 L 235.2363128662109 12.76366806030273 L 235.2363128662109 9.763668060302734 Z M 235.2363128662109 15.76366710662842 L 236.2363128662109 15.76366710662842 C 236.2363128662109 15.76366710662842 236.2363128662109 18.76366806030273 236.2363128662109 18.76366806030273 L 235.2363128662109 18.76366806030273 L 235.2363128662109 15.76366710662842 Z M 235.2363128662109 21.76366806030273 L 236.2363128662109 21.76366806030273 C 236.2363128662109 21.76366806030273 236.2363128662109 24.76366806030273 236.2363128662109 24.76366806030273 L 235.2363128662109 24.76366806030273 L 235.2363128662109 21.76366806030273 Z M 235.2363128662109 27.76366806030273 L 236.2363128662109 27.76366806030273 C 236.2363128662109 27.76366806030273 236.2363128662109 29.55957984924316 236.2363128662109 29.55957984924316 L 235.2363128662109 29.55957984924316 C 235.1146240234375 29.55957984924316 235.0322265625 29.55957984924316 235.0322265625 29.55957984924316 L 235.0322265625 28.55957984924316 L 235.2363128662109 28.55957984924316 L 235.2363128662109 27.76366806030273 Z M 229.0322265625 28.55957984924316 L 232.0322265625 28.55957984924316 L 232.0322265625 29.55957984924316 C 232.0322265625 29.55957984924316 229.0322265625 29.55957984924316 229.0322265625 29.55957984924316 L 229.0322265625 28.55957984924316 Z M 223.0322265625 28.55957984924316 L 226.0322265625 28.55957984924316 L 226.0322265625 29.55957984924316 C 226.0322265625 29.55957984924316 223.0322265625 29.55957984924316 223.0322265625 29.55957984924316 L 223.0322265625 28.55957984924316 Z M 217.0322265625 28.55957984924316 L 220.0322265625 28.55957984924316 L 220.0322265625 29.55957984924316 C 220.0322265625 29.55957984924316 217.0322265625 29.55957984924316 217.0322265625 29.55957984924316 L 217.0322265625 28.55957984924316 Z M 211.0322265625 28.55957984924316 L 214.0322265625 28.55957984924316 L 214.0322265625 29.55957984924316 C 214.0322265625 29.55957984924316 211.0322265625 29.55957984924316 211.0322265625 29.55957984924316 L 211.0322265625 28.55957984924316 Z M 205.0322265625 28.55957984924316 L 208.0322265625 28.55957984924316 L 208.0322265625 29.55957984924316 C 208.0322265625 29.55957984924316 205.0322265625 29.55957984924316 205.0322265625 29.55957984924316 L 205.0322265625 28.55957984924316 Z M 199.0322265625 28.55957984924316 L 202.0322265625 28.55957984924316 L 202.0322265625 29.55957984924316 C 202.0322265625 29.55957984924316 199.0322265625 29.55957984924316 199.0322265625 29.55957984924316 L 199.0322265625 28.55957984924316 Z M 193.0322265625 28.55957984924316 L 196.0322265625 28.55957984924316 L 196.0322265625 29.55957984924316 C 196.0322265625 29.55957984924316 193.0322265625 29.55957984924316 193.0322265625 29.55957984924316 L 193.0322265625 28.55957984924316 Z M 187.0322265625 28.55957984924316 L 190.0322265625 28.55957984924316 L 190.0322265625 29.55957984924316 C 190.0322265625 29.55957984924316 187.0322265625 29.55957984924316 187.0322265625 29.55957984924316 L 187.0322265625 28.55957984924316 Z M 181.0322265625 28.55957984924316 L 184.0322265625 28.55957984924316 L 184.0322265625 29.55957984924316 C 184.0322265625 29.55957984924316 181.0322265625 29.55957984924316 181.0322265625 29.55957984924316 L 181.0322265625 28.55957984924316 Z M 175.0322265625 28.55957984924316 L 178.0322265625 28.55957984924316 L 178.0322265625 29.55957984924316 C 178.0322265625 29.55957984924316 175.0322265625 29.55957984924316 175.0322265625 29.55957984924316 L 175.0322265625 28.55957984924316 Z M 169.0322265625 28.55957984924316 L 172.0322265625 28.55957984924316 L 172.0322265625 29.55957984924316 C 172.0322265625 29.55957984924316 169.0322265625 29.55957984924316 169.0322265625 29.55957984924316 L 169.0322265625 28.55957984924316 Z M 163.0322265625 28.55957984924316 L 166.0322265625 28.55957984924316 L 166.0322265625 29.55957984924316 C 166.0322265625 29.55957984924316 163.0322265625 29.55957984924316 163.0322265625 29.55957984924316 L 163.0322265625 28.55957984924316 Z M 157.0322265625 28.55957984924316 L 160.0322265625 28.55957984924316 L 160.0322265625 29.55957984924316 C 160.0322265625 29.55957984924316 157.0322265625 29.55957984924316 157.0322265625 29.55957984924316 L 157.0322265625 28.55957984924316 Z M 151.0322265625 28.55957984924316 L 154.0322265625 28.55957984924316 L 154.0322265625 29.55957984924316 C 154.0322265625 29.55957984924316 151.0322265625 29.55957984924316 151.0322265625 29.55957984924316 L 151.0322265625 28.55957984924316 Z M 145.0322265625 28.55957984924316 L 148.0322265625 28.55957984924316 L 148.0322265625 29.55957984924316 C 148.0322265625 29.55957984924316 145.0322265625 29.55957984924316 145.0322265625 29.55957984924316 L 145.0322265625 28.55957984924316 Z M 139.0322265625 28.55957984924316 L 142.0322265625 28.55957984924316 L 142.0322265625 29.55957984924316 C 142.0322265625 29.55957984924316 139.0322265625 29.55957984924316 139.0322265625 29.55957984924316 L 139.0322265625 28.55957984924316 Z M 133.0322265625 28.55957984924316 L 136.0322265625 28.55957984924316 L 136.0322265625 29.55957984924316 C 136.0322265625 29.55957984924316 133.0322265625 29.55957984924316 133.0322265625 29.55957984924316 L 133.0322265625 28.55957984924316 Z M 127.0322265625 28.55957984924316 L 130.0322265625 28.55957984924316 L 130.0322265625 29.55957984924316 C 130.0322265625 29.55957984924316 127.0322265625 29.55957984924316 127.0322265625 29.55957984924316 L 127.0322265625 28.55957984924316 Z M 121.0322265625 28.55957984924316 L 124.0322265625 28.55957984924316 L 124.0322265625 29.55957984924316 C 124.0322265625 29.55957984924316 121.0322265625 29.55957984924316 121.0322265625 29.55957984924316 L 121.0322265625 28.55957984924316 Z M 115.0322265625 28.55957984924316 L 118.0322265625 28.55957984924316 L 118.0322265625 29.55957984924316 C 118.0322265625 29.55957984924316 115.0322265625 29.55957984924316 115.0322265625 29.55957984924316 L 115.0322265625 28.55957984924316 Z M 109.0322265625 28.55957984924316 L 112.0322265625 28.55957984924316 L 112.0322265625 29.55957984924316 C 112.0322265625 29.55957984924316 109.0322265625 29.55957984924316 109.0322265625 29.55957984924316 L 109.0322265625 28.55957984924316 Z M 103.0322265625 28.55957984924316 L 106.0322265625 28.55957984924316 L 106.0322265625 29.55957984924316 C 106.0322265625 29.55957984924316 103.0322265625 29.55957984924316 103.0322265625 29.55957984924316 L 103.0322265625 28.55957984924316 Z M 97.0322265625 28.55957984924316 L 100.0322265625 28.55957984924316 L 100.0322265625 29.55957984924316 C 100.0322265625 29.55957984924316 97.0322265625 29.55957984924316 97.0322265625 29.55957984924316 L 97.0322265625 28.55957984924316 Z M 91.0322265625 28.55957984924316 L 94.0322265625 28.55957984924316 L 94.0322265625 29.55957984924316 C 94.0322265625 29.55957984924316 91.0322265625 29.55957984924316 91.0322265625 29.55957984924316 L 91.0322265625 28.55957984924316 Z M 85.0322265625 28.55957984924316 L 88.0322265625 28.55957984924316 L 88.0322265625 29.55957984924316 C 88.0322265625 29.55957984924316 85.0322265625 29.55957984924316 85.0322265625 29.55957984924316 L 85.0322265625 28.55957984924316 Z M 79.0322265625 28.55957984924316 L 82.0322265625 28.55957984924316 L 82.0322265625 29.55957984924316 C 82.0322265625 29.55957984924316 79.0322265625 29.55957984924316 79.0322265625 29.55957984924316 L 79.0322265625 28.55957984924316 Z M 73.0322265625 28.55957984924316 L 76.0322265625 28.55957984924316 L 76.0322265625 29.55957984924316 C 76.0322265625 29.55957984924316 73.0322265625 29.55957984924316 73.0322265625 29.55957984924316 L 73.0322265625 28.55957984924316 Z M 67.0322265625 28.55957984924316 L 70.0322265625 28.55957984924316 L 70.0322265625 29.55957984924316 C 70.0322265625 29.55957984924316 67.0322265625 29.55957984924316 67.0322265625 29.55957984924316 L 67.0322265625 28.55957984924316 Z M 61.0322265625 28.55957984924316 L 64.0322265625 28.55957984924316 L 64.0322265625 29.55957984924316 C 64.0322265625 29.55957984924316 61.0322265625 29.55957984924316 61.0322265625 29.55957984924316 L 61.0322265625 28.55957984924316 Z M 55.0322265625 28.55957984924316 L 58.0322265625 28.55957984924316 L 58.0322265625 29.55957984924316 C 58.0322265625 29.55957984924316 55.0322265625 29.55957984924316 55.0322265625 29.55957984924316 L 55.0322265625 28.55957984924316 Z M 49.0322265625 28.55957984924316 L 52.0322265625 28.55957984924316 L 52.0322265625 29.55957984924316 C 52.0322265625 29.55957984924316 49.0322265625 29.55957984924316 49.0322265625 29.55957984924316 L 49.0322265625 28.55957984924316 Z M 43.0322265625 28.55957984924316 L 46.0322265625 28.55957984924316 L 46.0322265625 29.55957984924316 C 46.0322265625 29.55957984924316 43.0322265625 29.55957984924316 43.0322265625 29.55957984924316 L 43.0322265625 28.55957984924316 Z M 37.0322265625 28.55957984924316 L 40.0322265625 28.55957984924316 L 40.0322265625 29.55957984924316 C 40.0322265625 29.55957984924316 37.0322265625 29.55957984924316 37.0322265625 29.55957984924316 L 37.0322265625 28.55957984924316 Z M 31.0322265625 28.55957984924316 L 34.0322265625 28.55957984924316 L 34.0322265625 29.55957984924316 C 34.0322265625 29.55957984924316 31.0322265625 29.55957984924316 31.0322265625 29.55957984924316 L 31.0322265625 28.55957984924316 Z M 25.0322265625 28.55957984924316 L 28.0322265625 28.55957984924316 L 28.0322265625 29.55957984924316 C 28.0322265625 29.55957984924316 25.0322265625 29.55957984924316 25.0322265625 29.55957984924316 L 25.0322265625 28.55957984924316 Z M 19.0322265625 28.55957984924316 L 22.0322265625 28.55957984924316 L 22.0322265625 29.55957984924316 C 22.0322265625 29.55957984924316 19.0322265625 29.55957984924316 19.0322265625 29.55957984924316 L 19.0322265625 28.55957984924316 Z M 13.0322265625 28.55957984924316 L 16.0322265625 28.55957984924316 L 16.0322265625 29.55957984924316 C 16.0322265625 29.55957984924316 13.0322265625 29.55957984924316 13.0322265625 29.55957984924316 L 13.0322265625 28.55957984924316 Z M 7.0322265625 28.55957984924316 L 10.0322265625 28.55957984924316 L 10.0322265625 29.55957984924316 C 10.0322265625 29.55957984924316 7.0322265625 29.55957984924316 7.0322265625 29.55957984924316 L 7.0322265625 28.55957984924316 Z M 1.0322265625 28.55957984924316 L 4.0322265625 28.55957984924316 L 4.0322265625 29.55957984924316 C 4.0322265625 29.55957984924316 1.0322265625 29.55957984924316 1.0322265625 29.55957984924316 L 1.0322265625 28.55957984924316 Z M -1.52587890625e-05 24.5918140411377 L 0.9999847412109375 24.5918140411377 L 0.9999847412109375 27.5918140411377 L -1.52587890625e-05 27.5918140411377 L -1.52587890625e-05 24.5918140411377 Z M -1.52587890625e-05 18.59181594848633 L 0.9999847412109375 18.59181594848633 L 0.9999847412109375 21.5918140411377 L -1.52587890625e-05 21.5918140411377 L -1.52587890625e-05 18.59181594848633 Z M -1.52587890625e-05 12.5918140411377 L 0.9999847412109375 12.5918140411377 L 0.9999847412109375 15.59181499481201 L -1.52587890625e-05 15.59181499481201 L -1.52587890625e-05 12.5918140411377 Z M -1.52587890625e-05 6.591814041137695 L 0.9999847412109375 6.591814041137695 L 0.9999847412109375 9.591814041137695 L -1.52587890625e-05 9.591814041137695 L -1.52587890625e-05 6.591814041137695 Z" stroke="none" fill="#cecece"/>
        </g>
        <text id="SFA_CRM" data-name="SFA / CRM" transform="translate(118.951 19.604)" fill="#fff" font-size="12" font-family="SegoeUI, Segoe UI" letter-spacing="0.05em"><tspan x="-30.352" y="0">SFA / CRM</tspan></text>
      </g>
    </g>
    <g id="Group_148" data-name="Group 148" transform="translate(13145 -15385.422)">
      <g id="Group_1038" data-name="Group 1038" transform="translate(-16)">
        <text id="営_業_戦_略_戦_術_策_定" data-name="営
業
戦
略
/
戦
術
策
定" transform="translate(8 124.198)" fill="#fff" font-size="12" font-family="YuGothicUI-Regular, Yu Gothic UI" letter-spacing="0.1em"><tspan x="-6" y="0">営</tspan><tspan y="0" font-family="SegoeUI, Segoe UI"></tspan><tspan x="-6" y="20">業</tspan><tspan y="20" font-family="SegoeUI, Segoe UI"></tspan><tspan x="-6" y="40">戦</tspan><tspan y="40" font-family="SegoeUI, Segoe UI"></tspan><tspan x="-6" y="60">略</tspan><tspan y="60" font-family="SegoeUI, Segoe UI"></tspan><tspan font-family="SegoeUI, Segoe UI"><tspan x="-2.338" y="80">/</tspan></tspan><tspan x="-6" y="100">戦</tspan><tspan y="100" font-family="SegoeUI, Segoe UI"></tspan><tspan x="-6" y="120">術</tspan><tspan y="120" font-family="SegoeUI, Segoe UI"></tspan><tspan x="-6" y="140">策</tspan><tspan y="140" font-family="SegoeUI, Segoe UI"></tspan><tspan x="-6" y="160">定</tspan></text>
        <g id="Group_40" data-name="Group 40" transform="translate(10.643 330.198) rotate(90)">
          <path id="Path_110" data-name="Path 110" d="M0,0V64.97" transform="translate(64.97 2.293) rotate(90)" fill="none" stroke="#fff" stroke-width="0.5"/>
          <path id="Polygon_1" data-name="Polygon 1" d="M2.16,0l2.16,4.321H0Z" transform="translate(68.45 0.265) rotate(90)" fill="#fff"/>
          <circle id="Ellipse_21" data-name="Ellipse 21" cx="2.293" cy="2.293" r="2.293" transform="translate(0 0)" fill="#fff"/>
        </g>
        <g id="Group_147" data-name="Group 147" transform="translate(6.057 68.648) rotate(-90)">
          <path id="Path_110-2" data-name="Path 110" d="M0,64.97V0" transform="translate(0 2.293) rotate(-90)" fill="none" stroke="#fff" stroke-width="0.5"/>
          <path id="Polygon_1-2" data-name="Polygon 1" d="M2.16,0l2.16,4.321H0Z" transform="translate(68.45 0) rotate(90)" fill="#fff"/>
          <ellipse id="Ellipse_21-2" data-name="Ellipse 21" cx="2.293" cy="2.293" rx="2.293" ry="2.293" transform="translate(0 0)" fill="#fff"/>
        </g>
      </g>
    </g>
  </g>
</svg>
