<svg xmlns="http://www.w3.org/2000/svg" xmlns:xlink="http://www.w3.org/1999/xlink" width="350" height="257" viewBox="0 0 350 257">
  <defs>
    <linearGradient id="linear-gradient" x1="0.5" y1="1" x2="0.5" gradientUnits="objectBoundingBox">
      <stop offset="0" stop-color="#900"/>
      <stop offset="0.069" stop-color="#8a0000"/>
      <stop offset="0.502" stop-color="#680000"/>
      <stop offset="1" stop-color="#4d0000"/>
    </linearGradient>
    <linearGradient id="linear-gradient-5" x1="0.5" x2="0.5" y2="1" gradientUnits="objectBoundingBox">
      <stop offset="0" stop-color="#640000"/>
      <stop offset="1" stop-color="#181818"/>
    </linearGradient>
  </defs>
  <g id="Group_1040" data-name="Group 1040" transform="translate(-429.781 -211.922)">
    <g id="Group_149" data-name="Group 149" transform="translate(429.782 372.923)">
      <ellipse id="Ellipse_31" data-name="Ellipse 31" cx="165.893" cy="42.046" rx="165.893" ry="42.046" transform="translate(9.805 3.088)" opacity="0.276" fill="url(#linear-gradient)" style="mix-blend-mode: screen;isolation: isolate"/>
      <path id="Subtraction_2" data-name="Subtraction 2" d="M175,96c-11.874,0-23.74-.328-35.269-.975-11.236-.631-22.288-1.572-32.85-2.8-10.369-1.2-20.37-2.692-29.726-4.426-9.266-1.717-17.98-3.689-25.9-5.861a193.1,193.1,0,0,1-21.369-7.1,96.963,96.963,0,0,1-16.135-8.153,50.34,50.34,0,0,1-5.885-4.41,30.728,30.728,0,0,1-4.313-4.6A19.182,19.182,0,0,1,.9,52.908a13.781,13.781,0,0,1,0-9.815,19.187,19.187,0,0,1,2.652-4.766,30.714,30.714,0,0,1,4.313-4.6,50.305,50.305,0,0,1,5.885-4.41,96.977,96.977,0,0,1,16.135-8.153,193.129,193.129,0,0,1,21.369-7.1c7.918-2.172,16.632-4.144,25.9-5.861,9.355-1.733,19.356-3.222,29.726-4.426,10.56-1.225,21.612-2.166,32.85-2.8C151.261.328,163.127,0,175,0s23.739.328,35.269.975c11.236.631,22.288,1.572,32.849,2.8,10.371,1.2,20.372,2.692,29.726,4.426,9.267,1.717,17.98,3.689,25.9,5.861a193.128,193.128,0,0,1,21.369,7.1,96.99,96.99,0,0,1,16.135,8.153,50.308,50.308,0,0,1,5.885,4.41,30.712,30.712,0,0,1,4.313,4.6,19.186,19.186,0,0,1,2.652,4.766,13.781,13.781,0,0,1,0,9.815,19.178,19.178,0,0,1-2.652,4.766,30.734,30.734,0,0,1-4.313,4.6,50.334,50.334,0,0,1-5.885,4.41,96.976,96.976,0,0,1-16.135,8.153,193.1,193.1,0,0,1-21.369,7.1c-7.919,2.172-16.633,4.144-25.9,5.861-9.355,1.734-19.356,3.222-29.726,4.426-10.562,1.225-21.614,2.166-32.849,2.8C198.739,95.672,186.873,96,175,96Zm0-93.073c-11.251,0-22.5.282-33.423.838-10.65.542-21.123,1.351-31.131,2.4-9.826,1.034-19.3,2.314-28.171,3.8-8.782,1.477-17.04,3.172-24.545,5.039A196.381,196.381,0,0,0,37.48,21.122a95.792,95.792,0,0,0-15.291,7.01,36.241,36.241,0,0,0-9.663,7.746,16.1,16.1,0,0,0-2.513,4.1,10.826,10.826,0,0,0,0,8.439,16.106,16.106,0,0,0,2.513,4.1,36.241,36.241,0,0,0,9.663,7.746,95.8,95.8,0,0,0,15.291,7.01,196.4,196.4,0,0,0,20.251,6.108c7.505,1.868,15.763,3.563,24.545,5.039,8.866,1.491,18.344,2.771,28.171,3.8,10.008,1.053,20.482,1.862,31.131,2.4,10.926.556,22.172.838,33.423.838s22.5-.282,33.423-.838c10.649-.542,21.123-1.351,31.131-2.4,9.827-1.034,19.3-2.314,28.171-3.8,8.782-1.476,17.04-3.172,24.545-5.039a196.38,196.38,0,0,0,20.251-6.108,95.826,95.826,0,0,0,15.29-7.01,36.25,36.25,0,0,0,9.664-7.746,16.106,16.106,0,0,0,2.513-4.1,10.822,10.822,0,0,0,0-8.439,16.113,16.113,0,0,0-2.513-4.1,36.251,36.251,0,0,0-9.664-7.746,95.818,95.818,0,0,0-15.29-7.01,196.391,196.391,0,0,0-20.251-6.107c-7.5-1.867-15.762-3.563-24.545-5.039-8.867-1.491-18.345-2.771-28.171-3.8-10.007-1.053-20.481-1.862-31.131-2.4C197.5,3.209,186.251,2.927,175,2.927Z" transform="translate(-0.001 -0.001)" fill="url(#linear-gradient)"/>
    </g>
    <g id="Group_150" data-name="Group 150" transform="translate(469.272 312.922)">
      <ellipse id="Ellipse_31-2" data-name="Ellipse 31" cx="128.654" cy="34.856" rx="128.654" ry="34.856" transform="translate(7.607 2.431)" opacity="0.276" fill="url(#linear-gradient)" style="mix-blend-mode: screen;isolation: isolate"/>
      <path id="Subtraction_2-2" data-name="Subtraction 2" d="M135.5,80c-9.194,0-18.381-.273-27.308-.813-8.7-.526-17.257-1.31-25.435-2.331-8.029-1-15.772-2.243-23.016-3.688-7.175-1.431-13.922-3.074-20.053-4.884a142.249,142.249,0,0,1-16.546-5.92A73.2,73.2,0,0,1,10.648,55.57a39.363,39.363,0,0,1-4.556-3.675,24.965,24.965,0,0,1-3.339-3.833A16.375,16.375,0,0,1,.7,44.09a12.3,12.3,0,0,1,0-8.179,16.379,16.379,0,0,1,2.053-3.972,24.954,24.954,0,0,1,3.339-3.833,39.336,39.336,0,0,1,4.556-3.675,73.206,73.206,0,0,1,12.493-6.795,142.272,142.272,0,0,1,16.546-5.92c6.131-1.81,12.878-3.453,20.053-4.884,7.243-1.445,14.987-2.685,23.016-3.688C90.934,2.122,99.491,1.338,108.192.813,117.119.273,126.307,0,135.5,0s18.381.273,27.308.813c8.7.526,17.258,1.31,25.435,2.331,8.03,1,15.774,2.244,23.017,3.688,7.175,1.431,13.922,3.074,20.053,4.884a142.27,142.27,0,0,1,16.546,5.92,73.217,73.217,0,0,1,12.493,6.795,39.341,39.341,0,0,1,4.556,3.675,24.948,24.948,0,0,1,3.339,3.833A16.378,16.378,0,0,1,270.3,35.91a12.306,12.306,0,0,1,0,8.179,16.372,16.372,0,0,1-2.053,3.972,24.967,24.967,0,0,1-3.339,3.833,39.36,39.36,0,0,1-4.556,3.675,73.208,73.208,0,0,1-12.493,6.795,142.249,142.249,0,0,1-16.546,5.92c-6.132,1.81-12.879,3.453-20.053,4.884-7.244,1.445-14.987,2.685-23.017,3.688-8.178,1.021-16.735,1.805-25.435,2.331C153.881,79.727,144.693,80,135.5,80Zm0-77.561c-8.712,0-17.419.235-25.879.7-8.246.452-16.355,1.126-24.1,2C77.909,6,70.57,7.07,63.7,8.312c-6.8,1.23-13.194,2.643-19,4.2A144.118,144.118,0,0,0,29.02,17.6a71.816,71.816,0,0,0-11.839,5.842A28.569,28.569,0,0,0,9.7,29.9a13.64,13.64,0,0,0-1.946,3.415,9.657,9.657,0,0,0,0,7.032A13.643,13.643,0,0,0,9.7,43.76a28.568,28.568,0,0,0,7.482,6.455A71.823,71.823,0,0,0,29.02,56.057a144.136,144.136,0,0,0,15.68,5.09c5.811,1.556,12.205,2.969,19,4.2,6.865,1.242,14.2,2.309,21.812,3.171,7.749.878,15.859,1.552,24.1,2,8.46.464,17.167.7,25.879.7s17.419-.235,25.879-.7c8.245-.452,16.355-1.126,24.1-2,7.609-.862,14.948-1.929,21.812-3.171,6.8-1.23,13.193-2.643,19-4.2a144.124,144.124,0,0,0,15.68-5.09,71.84,71.84,0,0,0,11.839-5.842A28.575,28.575,0,0,0,261.3,43.76a13.64,13.64,0,0,0,1.946-3.415,9.653,9.653,0,0,0,0-7.032A13.647,13.647,0,0,0,261.3,29.9a28.575,28.575,0,0,0-7.482-6.455A71.834,71.834,0,0,0,241.98,17.6a144.126,144.126,0,0,0-15.68-5.09c-5.81-1.556-12.2-2.969-19-4.2C200.43,7.07,193.091,6,185.483,5.142c-7.748-.878-15.858-1.552-24.1-2C152.919,2.674,144.212,2.439,135.5,2.439Z" transform="translate(-0.492 0)" fill="url(#linear-gradient)"/>
    </g>
    <path id="Union_3" data-name="Union 3" d="M0,207.161H0l0,0c0-.07,0-.14,0-.21,0-4.74,2.5-9.318,7.153-13.643L95.517,22.149c0-.05,0-.1,0-.152,0-12.149,35.66-22,79.65-22,42.374,0,77.018,9.138,79.507,20.668l88.31,172.764c4.567,4.287,7.016,8.822,7.016,13.515,0,.07,0,.139,0,.208l0,0h0C349.578,233.6,271.389,255,175,255S.421,233.6,0,207.161Z" transform="translate(429.781 212.922)" opacity="0.506" fill="url(#linear-gradient-5)"/>
    <g id="Group_151" data-name="Group 151" transform="translate(501.795 262.923)">
      <ellipse id="Ellipse_31-3" data-name="Ellipse 31" cx="98.392" cy="27.018" rx="98.392" ry="27.018" transform="translate(5.355 1.843)" opacity="0.276" fill="url(#linear-gradient)" style="mix-blend-mode: screen;isolation: isolate"/>
      <path id="Subtraction_2-3" data-name="Subtraction 2" d="M104,62c-7.056,0-14.108-.212-20.96-.63-6.678-.407-13.245-1.015-19.522-1.806-6.162-.777-12.106-1.738-17.666-2.858C40.346,55.6,35.167,54.323,30.461,52.92a108.492,108.492,0,0,1-12.7-4.588,56.016,56.016,0,0,1-9.589-5.266,30.268,30.268,0,0,1-3.5-2.848,19.3,19.3,0,0,1-2.563-2.971A12.736,12.736,0,0,1,.537,34.17a9.623,9.623,0,0,1,0-6.339,12.74,12.74,0,0,1,1.576-3.078,19.286,19.286,0,0,1,2.563-2.971,30.247,30.247,0,0,1,3.5-2.848,56.023,56.023,0,0,1,9.589-5.266,108.509,108.509,0,0,1,12.7-4.588c4.706-1.4,9.884-2.676,15.392-3.785,5.559-1.12,11.5-2.081,17.666-2.858C69.794,1.645,76.362,1.037,83.04.63,89.892.212,96.944,0,104,0s14.108.212,20.96.63c6.678.407,13.246,1.015,19.522,1.806,6.163.777,12.107,1.739,17.666,2.858,5.507,1.109,10.685,2.383,15.392,3.785a108.511,108.511,0,0,1,12.7,4.588,56.031,56.031,0,0,1,9.589,5.266,30.254,30.254,0,0,1,3.5,2.848,19.286,19.286,0,0,1,2.563,2.971,12.738,12.738,0,0,1,1.576,3.078,9.624,9.624,0,0,1,0,6.339,12.734,12.734,0,0,1-1.576,3.078,19.3,19.3,0,0,1-2.563,2.971,30.266,30.266,0,0,1-3.5,2.848,56.024,56.024,0,0,1-9.589,5.266,108.491,108.491,0,0,1-12.7,4.588c-4.706,1.4-9.885,2.676-15.392,3.785-5.56,1.12-11.5,2.081-17.666,2.858-6.277.791-12.845,1.4-19.522,1.806C118.108,61.788,111.056,62,104,62Zm0-60.11c-6.687,0-13.369.182-19.863.541-6.329.35-12.553.873-18.5,1.553C59.8,4.653,54.165,5.479,48.9,6.442,43.676,7.4,38.768,8.491,34.309,9.7a109.858,109.858,0,0,0-12.035,3.944,54.907,54.907,0,0,0-9.087,4.527,21.992,21.992,0,0,0-5.743,5A10.6,10.6,0,0,0,5.95,25.818a7.552,7.552,0,0,0,0,5.45,10.6,10.6,0,0,0,1.494,2.646,21.992,21.992,0,0,0,5.743,5,54.912,54.912,0,0,0,9.087,4.527,109.87,109.87,0,0,0,12.035,3.944c4.46,1.206,9.368,2.3,14.586,3.254,5.269.963,10.9,1.789,16.741,2.457,5.948.68,12.172,1.2,18.5,1.553,6.493.359,13.176.541,19.863.541s13.37-.182,19.863-.541c6.328-.35,12.553-.873,18.5-1.553,5.84-.668,11.473-1.495,16.742-2.457,5.219-.953,10.126-2.048,14.587-3.254a109.857,109.857,0,0,0,12.035-3.944,54.927,54.927,0,0,0,9.087-4.527,22,22,0,0,0,5.743-5,10.6,10.6,0,0,0,1.493-2.646,7.55,7.55,0,0,0,0-5.45,10.6,10.6,0,0,0-1.493-2.646,22,22,0,0,0-5.743-5,54.923,54.923,0,0,0-9.087-4.527A109.865,109.865,0,0,0,173.692,9.7c-4.459-1.206-9.367-2.3-14.587-3.255-5.269-.963-10.9-1.789-16.742-2.457-5.947-.68-12.172-1.2-18.5-1.553C117.369,2.072,110.687,1.89,104,1.89Z" transform="translate(-0.014 -0.001)" fill="url(#linear-gradient)"/>
    </g>
    <g id="Group_152" data-name="Group 152" transform="translate(525.798 210.922)">
      <ellipse id="Ellipse_31-4" data-name="Ellipse 31" cx="75.679" cy="19.181" rx="75.679" ry="19.181" transform="translate(4.361 1.696)" opacity="0.276" fill="url(#linear-gradient)" style="mix-blend-mode: screen;isolation: isolate"/>
      <path id="Subtraction_2-4" data-name="Subtraction 2" d="M80,44c-5.428,0-10.852-.15-16.123-.447-5.137-.289-10.189-.72-15.017-1.282-4.74-.551-9.312-1.234-13.589-2.028-4.236-.787-8.219-1.691-11.84-2.686A88.115,88.115,0,0,1,13.663,34.3a44.282,44.282,0,0,1-7.376-3.737A23.018,23.018,0,0,1,3.6,28.542a14.069,14.069,0,0,1-1.971-2.108A8.8,8.8,0,0,1,.413,24.249a6.332,6.332,0,0,1,0-4.5,8.8,8.8,0,0,1,1.212-2.184A14.063,14.063,0,0,1,3.6,15.458a23,23,0,0,1,2.69-2.021A44.288,44.288,0,0,1,13.663,9.7a88.127,88.127,0,0,1,9.769-3.256c3.62-1,7.6-1.9,11.84-2.686C39.548,2.963,44.12,2.28,48.86,1.729,53.688,1.167,58.74.736,63.877.447,69.148.15,74.572,0,80,0S90.852.15,96.123.447c5.137.289,10.189.72,15.017,1.282,4.741.551,9.313,1.234,13.589,2.028,4.236.787,8.22,1.691,11.84,2.686A88.129,88.129,0,0,1,146.337,9.7a44.294,44.294,0,0,1,7.376,3.737,23.005,23.005,0,0,1,2.69,2.021,14.062,14.062,0,0,1,1.971,2.108,8.8,8.8,0,0,1,1.212,2.184,6.332,6.332,0,0,1,0,4.5,8.8,8.8,0,0,1-1.212,2.184,14.071,14.071,0,0,1-1.971,2.108,23.016,23.016,0,0,1-2.69,2.021,44.288,44.288,0,0,1-7.376,3.737,88.115,88.115,0,0,1-9.769,3.256c-3.62,1-7.6,1.9-11.84,2.686-4.277.795-8.849,1.477-13.589,2.028-4.828.562-9.881.993-15.017,1.282C90.852,43.85,85.428,44,80,44ZM80,1.342c-5.144,0-10.284.129-15.279.384-4.868.249-9.656.619-14.231,1.1C46,3.3,41.665,3.889,37.612,4.572c-4.015.677-7.79,1.454-11.22,2.31a89.6,89.6,0,0,0-9.258,2.8,43.737,43.737,0,0,0-6.99,3.213,16.576,16.576,0,0,0-4.418,3.55,7.384,7.384,0,0,0-1.149,1.878,4.974,4.974,0,0,0,0,3.868,7.385,7.385,0,0,0,1.149,1.878,16.575,16.575,0,0,0,4.418,3.55,43.741,43.741,0,0,0,6.99,3.213,89.608,89.608,0,0,0,9.258,2.8c3.431.856,7.206,1.633,11.22,2.31,4.053.683,8.386,1.27,12.878,1.744,4.575.483,9.363.854,14.231,1.1,4.995.255,10.136.384,15.279.384s10.284-.129,15.279-.384c4.868-.249,9.656-.619,14.231-1.1,4.492-.474,8.825-1.061,12.878-1.744,4.015-.677,7.789-1.454,11.22-2.31a89.6,89.6,0,0,0,9.258-2.8,43.752,43.752,0,0,0,6.99-3.213,16.579,16.579,0,0,0,4.418-3.55,7.384,7.384,0,0,0,1.149-1.878,4.972,4.972,0,0,0,0-3.868,7.387,7.387,0,0,0-1.149-1.878,16.579,16.579,0,0,0-4.418-3.55,43.749,43.749,0,0,0-6.99-3.213,89.6,89.6,0,0,0-9.258-2.8c-3.43-.856-7.206-1.633-11.22-2.31C118.335,3.889,114,3.3,109.51,2.828c-4.575-.483-9.363-.854-14.231-1.1C90.284,1.471,85.144,1.342,80,1.342Z" transform="translate(-0.017 1)" fill="url(#linear-gradient)"/>
    </g>
    <text id="Aランク" transform="translate(602.781 419.923)" fill="#efefef" font-size="14" font-family="SegoeUI, Segoe UI" letter-spacing="0.05em"><tspan x="-20.874" y="0">A</tspan><tspan y="0" font-family="YuGothicUI-Regular, Yu Gothic UI">ランク</tspan></text>
    <text id="Sランク" transform="translate(604.027 344.923)" fill="#efefef" font-size="14" font-family="SegoeUI, Segoe UI" letter-spacing="0.05em"><tspan x="-20.078" y="0">S</tspan><tspan y="0" font-family="YuGothicUI-Regular, Yu Gothic UI">ランク</tspan></text>
    <text id="エキスパート" transform="translate(604.781 295.923)" fill="#fff" font-size="14" font-family="YuGothicUI-Regular, Yu Gothic UI" letter-spacing="0.05em"><tspan x="-32.556" y="0">エキスパート</tspan></text>
    <text id="エグゼクティブ" transform="translate(605.781 236.923)" fill="#fff" font-size="14" font-family="YuGothicUI-Regular, Yu Gothic UI" letter-spacing="0.05em"><tspan x="-38.44" y="0">エグゼクティブ</tspan></text>
    <text id="セールスクロス登録者人材" transform="translate(534.281 429.42)" fill="#efefef" font-size="10" font-family="YuGothicUI-Regular, Yu Gothic UI" letter-spacing="0.05em"><tspan x="-54.139" y="11">セールスクロス登録者人材</tspan></text>
    <text id="各領域において優秀な成績を収めている_セールスクロス登録者人材" data-name="各領域において優秀な成績を収めている
セールスクロス登録者人材" transform="translate(495.28 350.259)" fill="#efefef" font-size="10" font-family="YuGothicUI-Regular, Yu Gothic UI" letter-spacing="0.05em"><tspan x="-83.754" y="11">各領域において優秀な成績を収めている</tspan><tspan y="11" font-family="SegoeUI, Segoe UI"></tspan><tspan x="-54.139" y="27">セールスクロス登録者人材</tspan></text>
    <path id="Union_4" data-name="Union 4" d="M6.282,25V16.935L0,12.9,6.282,8.872V0H98V25Z" transform="translate(681.781 320.922)" fill="#fff"/>
    <text id="入会基準あり" transform="translate(703.781 336.923)" fill="#900" font-size="10" font-family="YuGothicUI-Regular, Yu Gothic UI" letter-spacing="0.05em"><tspan x="0" y="0">入会基準あり</tspan></text>
  </g>
</svg>
